<?xml version="1.0" encoding="UTF-8"?>
<svg width="592px" height="101px" viewBox="0 0 592 101" version="1.1" xmlns="http://www.w3.org/2000/svg" xmlns:xlink="http://www.w3.org/1999/xlink">
    <!-- Generator: Sketch 63.1 (92452) - https://sketch.com -->
    <title>logo</title>
    <desc>Created with Sketch.</desc>
    <g id="Page-2" stroke="none" stroke-width="1" fill="none" fill-rule="evenodd">
        <g id="small" transform="translate(-150.000000, -962.000000)">
            <g id="dark" transform="translate(0.000000, 751.000000)">
                <g id="logo" transform="translate(150.000000, 211.000000)">
                    <g id="symbol">
                        <rect id="Rectangle" fill="#FFFFFF" x="57" y="49" width="12" height="52" rx="6"></rect>
                        <rect id="Rectangle" fill="#44D7B6" transform="translate(27.000000, 62.000000) rotate(-270.000000) translate(-27.000000, -62.000000) " x="21" y="36" width="12" height="52" rx="6"></rect>
                        <rect id="Rectangle" fill="#44D7B6" transform="translate(73.000000, 39.000000) rotate(-270.000000) translate(-73.000000, -39.000000) " x="67" y="13" width="12" height="52" rx="6"></rect>
                        <rect id="Rectangle" fill="#44D7B6" transform="translate(85.000000, 62.000000) rotate(-270.000000) translate(-85.000000, -62.000000) " x="79" y="51" width="12" height="22" rx="6"></rect>
                        <rect id="Rectangle" fill="#44D7B6" transform="translate(14.000000, 39.000000) rotate(-270.000000) translate(-14.000000, -39.000000) " x="8" y="25" width="12" height="28" rx="6"></rect>
                        <rect id="Rectangle" fill="#FFFFFF" x="57.3682523" y="0.892137348" width="12" height="28" rx="6"></rect>
                        <rect id="Rectangle" fill="#FFFFFF" x="32" y="72" width="12" height="28" rx="6"></rect>
                        <rect id="Rectangle" fill="#FFFFFF" x="32" y="0" width="12" height="52" rx="6"></rect>
                    </g>
                    <g id="UTxORPC" transform="translate(129.272095, 13.015625)" fill-rule="nonzero">
                        <path d="M29.8405151,73.9967651 C35.7984009,73.9967651 41.015625,72.9034424 45.4921875,70.7167969 C49.96875,68.5301514 53.4526978,65.4668884 55.9440308,61.5270081 C58.4353638,57.5871277 59.6810303,52.9874268 59.6810303,47.7279053 L59.6810303,47.7279053 L59.6810303,0.984375 L44.4655151,0.984375 L44.4655151,46.4342651 C44.4655151,49.1764526 43.8631897,51.6175232 42.6585388,53.7574768 C41.4538879,55.8974304 39.7546692,57.5744019 37.5608826,58.7883911 C35.3670959,60.0023804 32.7936401,60.609375 29.8405151,60.609375 C26.9013062,60.609375 24.3336182,60.0023804 22.1374512,58.7883911 C19.9412842,57.5744019 18.2385864,55.8974304 17.0293579,53.7574768 C15.8201294,51.6175232 15.2155151,49.1764526 15.2155151,46.4342651 L15.2155151,46.4342651 L15.2155151,0.984375 L0,0.984375 L0,47.7279053 C0,52.9874268 1.23861694,57.5871277 3.71585083,61.5270081 C6.19308472,65.4668884 9.66998291,68.5301514 14.1465454,70.7167969 C18.6231079,72.9034424 23.8544312,73.9967651 29.8405151,73.9967651 Z M106.565014,72.984375 L106.565014,13.5280151 L128.615124,13.5280151 L128.615124,0.984375 L69.4685783,0.984375 L69.4685783,13.5280151 L91.5186882,13.5280151 L91.5186882,72.984375 L106.565014,72.984375 Z M147.23374,72.984375 L157.724585,54.3092651 L168.384069,72.984375 L183.68363,72.984375 L167.59635,45.984375 L183.261755,18.984375 L167.8776,18.984375 L157.724585,37.8561401 L147.824255,18.984375 L132.356054,18.984375 L147.824804,45.984375 L131.765539,72.984375 L147.23374,72.984375 Z M224.830587,73.96875 C231.196432,73.96875 236.924612,72.5214844 242.015127,69.6269531 C247.105642,66.7324219 251.134512,62.5300598 254.101736,57.0198669 C257.06896,51.5096741 258.552572,44.8311768 258.552572,36.984375 C258.552572,29.1375732 257.06896,22.4590759 254.101736,16.9488831 C251.134512,11.4386902 247.105642,7.23632812 242.015127,4.34179688 C236.924612,1.44726562 231.196432,0 224.830587,0 C218.436911,0 212.698294,1.44726562 207.614737,4.34179688 C202.531179,7.23632812 198.509268,11.4386902 195.549002,16.9488831 C192.588736,22.4590759 191.108603,29.1375732 191.108603,36.984375 C191.108603,44.8029785 192.588736,51.4673767 195.549002,56.9775696 C198.509268,62.4877625 202.531179,66.6971741 207.614737,69.6058044 C212.698294,72.5144348 218.436911,73.96875 224.830587,73.96875 Z M224.830587,60.4973145 C221.146139,60.4973145 217.934011,59.5960693 215.194204,57.7935791 C212.454397,55.9910889 210.328634,53.3425598 208.816916,49.8479919 C207.305197,46.3534241 206.549337,42.0655518 206.549337,36.984375 C206.549337,31.9031982 207.305197,27.6153259 208.816916,24.1207581 C210.328634,20.6261902 212.454397,17.9776611 215.194204,16.1751709 C217.934011,14.3726807 221.146139,13.4714355 224.830587,13.4714355 C228.515036,13.4714355 231.727163,14.3726807 234.46697,16.1751709 C237.206778,17.9776611 239.332632,20.6261902 240.844534,24.1207581 C242.356436,27.6153259 243.112387,31.9031982 243.112387,36.984375 C243.112387,42.0655518 242.356436,46.3534241 240.844534,49.8479919 C239.332632,53.3425598 237.206778,55.9910889 234.46697,57.7935791 C231.727163,59.5960693 228.515036,60.4973145 224.830587,60.4973145 Z" id="UTxO" fill="#44D7B6"></path>
                        <path d="M285.018225,72.984375 L285.017905,47.475375 L296.125905,47.475375 L309.768225,72.984375 L326.55863,72.984375 L311.294905,45.026375 L311.497344,44.9393639 L311.497344,44.9393639 L311.951208,44.7324829 C315.853552,42.9043579 318.837164,40.2723999 320.902044,36.8366089 C322.966925,33.4008179 323.999365,29.2875366 323.999365,24.4967651 C323.999365,19.7341919 322.984503,15.5904236 320.954779,12.0654602 C318.925055,8.54049683 315.986029,5.81240845 312.137701,3.88119507 C308.289373,1.94998169 303.636938,0.984375 298.180395,0.984375 L298.180395,0.984375 L269.80271,0.984375 L269.80271,72.984375 L285.018225,72.984375 Z M285.018225,13.4434204 L295.28385,13.4434204 C298.218298,13.4434204 300.64765,13.8664856 302.571905,14.712616 C304.496161,15.5587463 305.937567,16.8033142 306.896124,18.4463196 C307.854681,20.089325 308.33396,22.1061401 308.33396,24.4967651 C308.33396,26.8734741 307.85697,28.8563232 306.90299,30.4453125 C305.949011,32.0343018 304.512274,33.2261353 302.592779,34.020813 C300.673285,34.8154907 298.255651,35.2128296 295.33988,35.2128296 L295.33988,35.2128296 L285.017905,35.213375 L285.018225,13.4434204 Z M349.986906,72.984375 L349.986905,49.641375 L362.783781,49.640625 C368.11017,49.640625 372.681318,48.6930087 376.497226,46.7977762 L376.934172,46.5748901 C380.836515,44.5310669 383.817747,41.6834106 385.877867,38.0319214 C387.937986,34.3804321 388.968046,30.1593018 388.968046,25.3685303 C388.968046,20.6063232 387.953184,16.3900452 385.92346,12.719696 C383.893736,9.04934692 380.956999,6.1758728 377.113249,4.09927368 C373.269499,2.02267456 368.614775,0.984375 363.149076,0.984375 L363.149076,0.984375 L334.771391,0.984375 L334.771391,72.984375 L349.986906,72.984375 Z M349.986905,13.4434204 L360.252531,13.4434204 C363.196135,13.4434204 365.630064,13.9391785 367.554319,14.9306946 C369.478575,15.9222107 370.917692,17.3120728 371.871672,19.1002808 C372.825651,20.8884888 373.302641,22.9779053 373.302641,25.3685303 C373.302641,27.7452393 372.825651,29.8406067 371.871672,31.6546326 C370.917692,33.4686584 369.483335,34.885437 367.568602,35.9049683 C365.653868,36.9244995 363.233854,37.434375 360.308561,37.434375 L360.308561,37.434375 L349.986905,37.434375 L349.986905,13.4434204 Z M431.155495,73.96875 C435.772682,73.96875 439.916451,73.2726746 443.5868,71.8805237 C447.257149,70.4883728 450.420021,68.5887451 453.075417,66.1816406 C455.730812,63.7745361 457.848335,61.0440674 459.427986,57.9902344 C461.007637,54.9364014 461.999062,51.7595215 462.40226,48.4595947 L462.40226,48.4595947 L447.018105,48.375 C446.671303,50.296875 446.042061,52.0090027 445.130379,53.5113831 C444.218697,55.0137634 443.083076,56.2852478 441.723518,57.3258362 C440.36396,58.3664246 438.814705,59.1551514 437.075752,59.6920166 C435.3368,60.2288818 433.447792,60.4973145 431.40873,60.4973145 C427.766396,60.4973145 424.564705,59.6101685 421.803658,57.8358765 C419.04261,56.0615845 416.89222,53.4271545 415.352486,49.9325867 C413.812752,46.4380188 413.042885,42.1219482 413.042885,36.984375 C413.042885,31.9874268 413.805794,27.7381897 415.331612,24.2366638 C416.85743,20.7351379 419.004341,18.0655518 421.772346,16.2279053 C424.540352,14.3902588 427.780495,13.4714355 431.492775,13.4714355 C433.574318,13.4714355 435.498665,13.7609253 437.265816,14.3399048 C439.032967,14.9188843 440.592751,15.7603455 441.945168,16.8642883 C443.297585,17.9682312 444.408485,19.3006897 445.27787,20.8616638 C446.147255,22.4226379 446.727333,24.1968384 447.018105,26.1842651 L447.018105,26.1842651 L462.40226,26.1842651 C461.914833,22.0171509 460.796883,18.3140259 459.048409,15.0748901 C457.299934,11.8357544 455.045265,9.0970459 452.284401,6.85876465 C449.523537,4.6204834 446.357094,2.91778564 442.785072,1.75067139 C439.213051,0.583557129 435.336525,0 431.155495,0 C424.817848,0 419.117775,1.44726562 414.055275,4.34179688 C408.992775,7.23632812 404.984962,11.4386902 402.031837,16.9488831 C399.078712,22.4590759 397.60215,29.1375732 397.60215,36.984375 C397.60215,44.8029785 399.061134,51.4709473 401.979103,56.9882813 C404.897072,62.5056152 408.883827,66.7150269 413.939369,69.6165161 C418.994911,72.5180054 424.73362,73.96875 431.155495,73.96875 Z" id="RPC" fill="#FFFFFF"></path>
                    </g>
                </g>
            </g>
        </g>
    </g>
</svg>