<?xml version="1.0" encoding="UTF-8"?>
<svg width="499px" height="206px" viewBox="0 0 499 206" version="1.1" xmlns="http://www.w3.org/2000/svg" xmlns:xlink="http://www.w3.org/1999/xlink">
    <!-- Generator: Sketch 63.1 (92452) - https://sketch.com -->
    <title>logo</title>
    <desc>Created with Sketch.</desc>
    <g id="Page-2" stroke="none" stroke-width="1" fill="none" fill-rule="evenodd">
        <g id="full" transform="translate(-127.000000, -928.000000)">
            <g id="dark" transform="translate(5.000000, 756.000000)">
                <g id="logo" transform="translate(122.000000, 162.000000)">
                    <g id="symbol" transform="translate(0.000000, 10.000000)">
                        <path d="M68.4674283,7.21790691 C67.4444398,7.82802712 67.8504268,11.5651674 69.9469981,20.8451574 C73.8686599,38.2046179 76.663677,66.4833813 76.663677,88.8026877 L76.663677,107.280086 L84.0676956,107.280086 L91.4717142,107.280086 L91.4717142,92.119523 C91.4717142,72.4563965 89.4504172,47.4328401 86.4234075,29.6284232 C83.8628511,14.5676984 80.5939769,1.56535891 79.1440232,0.670515943 C78.661528,0.372234953 76.3786223,1.53454476 74.0710364,3.25274186 C71.7646846,4.97093896 69.2423823,6.75446207 68.4674283,7.21790691 Z M118.136053,41.3378009 C115.196658,65.5195146 114.970835,68.9571414 116.271475,69.7607745 C116.946474,70.1773818 120.17586,70.1514979 123.447203,69.7016113 L129.395098,68.88442 L130.883305,53.8791607 C132.366577,38.9219714 136.314153,15.9074977 138.28609,10.7294876 C139.184444,8.36789106 138.511913,7.46565269 133.268633,4.00090947 L127.214614,0 L125.910273,3.41297545 C123.306526,10.2266007 119.894508,26.8711729 118.136053,41.3378009 Z M118.013887,165.826974 C119.771107,179.255781 125.103235,204.144988 126.528508,205.567369 C127.478691,206.516445 138.363832,198.202787 138.363832,196.528962 C138.363832,195.680957 137.279144,190.367365 135.953824,184.720979 C132.69112,170.82996 129.965207,145.594402 128.953325,119.913888 L128.114202,98.6521232 L121.588794,98.6521232 C118.000313,98.6521232 114.749949,99.1587078 114.366174,99.7786886 C113.244465,101.590561 115.90004,149.680359 118.013887,165.826974 Z M76.1762457,142.167868 C72.6679749,171.521429 71.1575551,181.798565 69.2670624,189.201357 C67.6443483,195.551537 67.4296317,198.099251 68.4637263,198.714302 C69.2411483,199.177747 71.8202148,201.005642 74.1956708,202.778072 L78.5146816,206 L80.1707138,201.975672 C82.7460783,195.716701 86.2481791,178.369566 88.3361123,161.522853 C90.6856543,142.565987 90.7831405,135.552686 88.6952073,135.844804 C87.8474471,135.963131 84.8216715,136.271272 81.9735923,136.528879 C76.9067756,136.987393 76.7809073,137.109417 76.1762457,142.167868 Z" id="Shape" fill="#FFFFFF"></path>
                        <path d="M1.07481671,79.3304175 C5.79117658,82.129575 39.3844431,88.1247764 58.3769849,89.5570181 L69.2596583,90.3779072 L69.2596583,83.6665849 L69.2596583,76.9552626 L53.5261187,75.403462 C39.6818379,74.0377787 20.8953746,70.9674567 11.0825819,68.4665801 C8.21599268,67.736901 7.3497225,68.3149745 3.97966002,73.2070292 C1.86951471,76.2711885 0.561471413,79.0259736 1.07481671,79.3304175 Z M120.916262,77.2905206 L98.8757329,78.0879909 L98.8757329,84.8634065 L98.8757329,91.6388222 L123.247294,90.8894221 C136.65227,90.477745 154.560123,89.2488766 163.043894,88.1592882 C181.223228,85.8248081 205,80.4717736 205,78.7129019 C205,76.3106306 198.187069,67.8922043 196.361978,68.0376471 C195.343926,68.1189965 188.534697,69.444005 181.230632,70.9810149 C163.82872,74.6442013 147.853316,76.3155608 120.916262,77.2905206 Z M3.47125074,125.662576 L0,126.998678 L3.98953204,132.546458 C6.18358956,135.598291 8.49734539,138.094237 9.13285699,138.094237 C9.76836859,138.094237 13.4222518,137.283209 17.2538314,136.292226 C33.376082,132.121222 71.0859829,128.273151 96.0992259,128.246035 C108.740354,128.232476 108.266497,128.631828 106.721525,119.297605 L105.956443,114.675482 L89.1505544,114.897344 C79.9078711,115.019368 69.5681591,115.301626 66.1746506,115.523488 C44.7967808,116.924915 12.6769139,122.117716 3.47125074,125.662576 Z M137.129829,129.148273 L147.310355,130.002441 C161.107744,131.159821 180.665459,134.100723 189.135656,136.292226 C192.967236,137.283209 196.640863,138.094237 197.301055,138.094237 C199.164399,138.094237 205.347989,128.084568 204.18309,126.953073 C201.302927,124.155148 168.580866,118.023132 147.927356,116.410935 L137.129829,115.569093 L137.129829,122.358066 L137.129829,129.148273 Z" id="Shape" fill="#44D7B6"></path>
                    </g>
                    <g id="text" transform="translate(234.000000, 0.000000)" font-family="InterV_Bold, Inter V" font-weight="bold">
                        <text id="UTxO" font-size="99" fill="#44D7B6">
                            <tspan x="0" y="96">UTxO</tspan>
                        </text>
                        <text id="RPC" font-size="131" fill="#FFFFFF">
                            <tspan x="0" y="206">RPC</tspan>
                        </text>
                    </g>
                </g>
            </g>
        </g>
    </g>
</svg>